<?xml version="1.0" encoding="UTF-8"?>
<svg width="129px" height="33px" viewBox="0 0 129 33" version="1.1" xmlns="http://www.w3.org/2000/svg" xmlns:xlink="http://www.w3.org/1999/xlink">
    <!-- Generator: Sketch 47.1 (45422) - http://www.bohemiancoding.com/sketch -->
    <title>logo</title>
    <desc>Created with Sketch.</desc>
    <defs>
        <polygon id="path-1" points="5.69035589e-16 20.9288624 5.69035589e-16 0.237570181 15.7516876 0.237570181 15.7516876 20.9288624"></polygon>
        <polygon id="path-3" points="31.6727866 31.8629535 0.227519505 31.8629535 0.227519505 0.0541925113 31.6727866 0.0541925113"></polygon>
    </defs>
    <g id="desktop" stroke="none" stroke-width="1" fill="none" fill-rule="evenodd">
        <g id="01home_03scroll" transform="translate(-109.000000, -69.000000)">
            <g id="header" transform="translate(0.000000, -1.000000)">
                <g id="logo" transform="translate(109.000000, 70.000000)">
                    <g id="Group-3" transform="translate(0.000000, 8.102877)">
                        <mask id="mask-2" fill="white">
                            <use xlink:href="#path-1"></use>
                        </mask>
                        <g id="Clip-2"></g>
                        <path d="M7.87581861,11.669743 C8.90065173,11.669743 9.72036704,11.3439762 10.3644471,10.6924425 C11.0380096,10.0409088 11.3597976,9.15231477 11.3597976,8.05648407 C11.3597976,6.96065337 11.0380096,6.07205933 10.3644471,5.42052565 C9.72036704,4.76899198 8.90065173,4.44322514 7.87581861,4.44322514 C6.85148946,4.44322514 6.03127018,4.76899198 5.35795961,5.42052565 C4.71387958,6.07205933 4.39183957,6.96065337 4.39183957,8.05648407 C4.39183957,9.15231477 4.71387958,10.0409088 5.35795961,10.6924425 C6.03127018,11.3439762 6.85148946,11.669743 7.87581861,11.669743 M13.7025253,2.51793804 C15.078377,4.02849694 15.7516876,5.86482268 15.7516876,8.05648407 C15.7516876,10.2481455 15.078377,12.11404 13.7025253,13.624344 C12.3261697,15.1349029 10.6864871,15.875398 8.754247,15.875398 C6.88046802,15.875398 5.4164207,15.2830019 4.39183957,14.068641 L4.39183957,18.6892791 C4.39183957,19.9260715 3.40052078,20.9288624 2.17762549,20.9288624 L-5.03974907e-05,20.9288624 L-5.03974907e-05,0.652298384 L4.39183957,0.652298384 L4.39183957,2.0443271 C5.4164207,0.829966213 6.88046802,0.237570181 8.754247,0.237570181 C10.6864871,0.237570181 12.3261697,1.00763404 13.7025253,2.51793804" id="Fill-1" fill="#0F265C" mask="url(#mask-2)"></path>
                    </g>
                    <polygon id="Fill-4" fill="#0F265C" points="17.4342585 23.5635463 21.8261484 23.5635463 21.8261484 8.75492001 17.4342585 8.75492001"></polygon>
                    <g id="Group-16" transform="translate(24.190799, 0.200864)">
                        <path d="M7.92651849,19.5717555 C8.95135161,19.5717555 9.77106692,19.2459886 10.4153989,18.594455 C11.0889615,17.9429213 11.4104975,17.0543272 11.4104975,15.9584965 C11.4104975,14.8626658 11.0889615,13.9740718 10.4153989,13.3225381 C9.77106692,12.6710045 8.95135161,12.3452376 7.92651849,12.3452376 C6.90218934,12.3452376 6.08222205,12.6710045 5.40891148,13.3225381 C4.76457946,13.9740718 4.44279144,14.8626658 4.44279144,15.9584965 C4.44279144,17.0543272 4.76457946,17.9429213 5.40891148,18.594455 C6.08222205,19.2459886 6.90218934,19.5717555 7.92651849,19.5717555 M13.7529732,10.4199505 C15.1288249,11.9305094 15.8026395,13.7668351 15.8026395,15.9584965 C15.8026395,18.1501579 15.1288249,20.0160525 13.7529732,21.5263565 C12.3768696,23.0369154 10.737187,23.7774104 8.80494688,23.7774104 C6.93141989,23.7774104 5.46712059,23.1850144 4.44279144,21.9706535 L4.44279144,23.3626822 L0.0506494855,23.3626822 L0.0506494855,3.08586332 L2.22857736,3.08586332 C3.45122067,3.08586332 4.44279144,4.0886542 4.44279144,5.3254466 L4.44279144,9.94633957 C5.46712059,8.73197868 6.93141989,8.13958265 8.80494688,8.13958265 C10.737187,8.13958265 12.3768696,8.90964651 13.7529732,10.4199505" id="Fill-5" fill="#0F265C"></path>
                        <path d="M24.6290557,19.5717555 C25.6536368,19.5717555 26.5030867,19.2459886 27.1469147,18.594455 C27.7912467,17.9429213 28.1132867,17.0543272 28.1132867,15.9584965 C28.1132867,14.8626658 27.7912467,13.9740718 27.1469147,13.3225381 C26.5030867,12.6710045 25.6536368,12.3452376 24.6290557,12.3452376 C23.6047266,12.3452376 22.7552767,12.6710045 22.1114487,13.3225381 C21.4668647,13.9740718 21.1453286,14.8626658 21.1453286,15.9584965 C21.1453286,17.0543272 21.4668647,17.9429213 22.1114487,18.594455 C22.7552767,19.2459886 23.6047266,19.5717555 24.6290557,19.5717555 L24.6290557,19.5717555 Z M28.1132867,8.55431086 L32.5051767,8.55431086 L32.5051767,23.3629371 L28.1132867,23.3629371 L28.1132867,21.9709084 C27.0887056,23.1850144 25.6244063,23.7774104 23.7508793,23.7774104 C21.8186392,23.7774104 20.1789566,23.0369154 18.8028529,21.5263565 C17.4267493,20.0160525 16.7531867,18.1501579 16.7531867,15.9584965 C16.7531867,13.7668351 17.4267493,11.9305094 18.8028529,10.4199505 C20.1789566,8.90964651 21.8186392,8.13958265 23.7508793,8.13958265 C25.6244063,8.13958265 27.0887056,8.73197868 28.1132867,9.94633957 L28.1132867,8.55431086 Z" id="Fill-7" fill="#0F265C"></path>
                        <path d="M47.3923456,9.76841684 C48.4466613,10.8642475 48.9733151,12.3452376 48.9733151,14.2702698 L48.9733151,23.3626822 L44.5814252,23.3626822 L44.5814252,14.9218035 C44.5814252,13.1744391 43.5276135,12.2267074 42.0343356,12.2267074 C40.3654225,12.2267074 39.3113588,13.2631456 39.3113588,15.2771391 L39.3113588,23.3626822 L34.9197208,23.3626822 L34.9197208,8.55405595 L39.3113588,8.55405595 L39.3113588,9.94608467 C40.1897872,8.73197868 41.5953734,8.13958265 43.4983829,8.13958265 C45.0498699,8.13958265 46.3677645,8.67258614 47.3923456,9.76841684" id="Fill-9" fill="#0F265C"></path>
                        <path d="M64.9369746,23.3627077 L59.9597177,23.3627077 L55.2750183,16.8172924 L55.2750183,23.3627077 L50.8833803,23.3627077 L50.8833803,3.08588881 L53.0610562,3.08588881 C54.2836995,3.08588881 55.2750183,4.08867969 55.2750183,5.32572699 L55.2750183,15.0403592 L59.6669083,8.55408144 L64.7905699,8.55408144 L59.4617904,15.958522 L64.9369746,23.3627077 Z" id="Fill-11" fill="#0F265C"></path>
                        <g id="Group-15" transform="translate(72.572397, 0.000000)">
                            <mask id="mask-4" fill="white">
                                <use xlink:href="#path-3"></use>
                            </mask>
                            <g id="Clip-14"></g>
                            <path d="M15.8550277,0.0541925113 C24.811419,0.0541925113 31.6717785,6.99317908 31.6727864,16.0527089 C31.6737944,23.2550109 26.9795194,29.3933452 20.1083245,31.2806517 C9.74206316,34.1279252 0.227519505,26.1321082 0.227519505,16.0547482 C0.227519505,6.99445359 7.27913743,0.0541925113 15.8550277,0.0541925113" id="Fill-13" fill="#FFDC00" mask="url(#mask-4)"></path>
                        </g>
                    </g>
                </g>
            </g>
        </g>
    </g>
</svg>